<!--?xml version="1.0" encoding="utf-8"?-->
<!-- Svg Vector Icons : http://www.onlinewebfonts.com/icon -->

<svg version="1.1" xmlns="http://www.w3.org/2000/svg" xmlns:xlink="http://www.w3.org/1999/xlink" x="0px" y="0px" viewBox="0 0 256 256" enable-background="new 0 0 256 256" xml:space="preserve">
<metadata> Svg Vector Icons : http://www.onlinewebfonts.com/icon </metadata>
<g><g><g><path fill="#ffffff4b" data-title="Layer 0" xs="0" d="M157.8,10.9c-1,0.5-3.4,2.4-5.3,4.4l-3.4,3.5l0.2,11.5c0.3,16.3,1.4,14.3-17.6,29.3c-13,10.2-29,21.6-32.4,23C96,84,92.8,83.7,83.2,81c-18.1-5-18.4-5.1-21.2-4.4c-1.5,0.4-5.9,3.1-11,6.7c-7,5-8.5,6.3-8.6,7.8c-0.2,1.6,5.2,7.2,60.1,62.1c50.1,50.1,60.6,60.3,61.9,60.3c1.4,0,2.6-1.2,7.9-8.7c3.4-4.8,6.5-9.8,6.8-11.1c0.7-2.6,0.6-3.1-4.4-21.1c-2.7-9.7-3-13.5-1.4-16.6c3.1-5.9,27.5-38.7,34-45.7c3.4-3.5,6-4.2,16.5-3.7c5.1,0.2,10.2,0.1,11.6-0.2c3.1-0.7,8.8-6.3,9.8-9.5c1.6-5.5,3.4-3.5-39.2-46.1c-21.5-21.5-39.9-39.5-41-40C162.8,9.8,160.3,9.8,157.8,10.9z"/><path fill="#ffffff4b" data-title="Layer 1" xs="1" d="M45.4,194.4c-19,27.4-34.8,50.3-35.1,50.9c-0.6,0.9-0.5,0.9,0.7,0.1c18.1-12.1,100.3-69.6,100.3-70c0-0.8-30-30.8-30.8-30.8C80.2,144.5,64.4,166.9,45.4,194.4z"/></g></g></g>
</svg>